<svg xmlns="http://www.w3.org/2000/svg" xmlns:xlink="http://www.w3.org/1999/xlink" width="100" height="100" viewBox="0 0 100 100">
  <defs>
    <clipPath id="clip-Custom_Size_1">
      <rect width="100" height="100"/>
    </clipPath>
  </defs>
  <g id="Custom_Size_1" data-name="Custom Size – 1" clip-path="url(#clip-Custom_Size_1)">
    <rect width="100" height="100" fill="#fff"/>
    <g id="file" transform="translate(-30.378 -35.77)">
      <path id="Path_1" data-name="Path 1" d="M119.094,173.148H1Q1,87.074,1,1H173.148q0,86.074,0,172.148H119.094m5.854-42.348s.042-.039.014-.253a5.759,5.759,0,0,0-.7-.8s.059-.03.009-.256c-.446-.614-.891-1.228-1.382-1.787,0,0,.049-.052.018-.242-.163-.2-.326-.393-.507-.641a1.191,1.191,0,0,1-.1-.263c-2.54-3.66-5.08-7.32-7.674-10.916,0,0,.062-.055-.017-.277-.443-.632-.886-1.263-1.329-2.033a.535.535,0,0,1-.135-.321c-2.882-4.232-5.763-8.465-8.715-12.925l-2.486-3.764a27.161,27.161,0,0,0,11.191-7.046s.006.015.192-.1a27,27,0,0,0,6.109-9.432.441.441,0,0,1,.16-.305,4.759,4.759,0,0,1,.416-1.455c.428-1.809.974-3.6,1.263-5.429a30.348,30.348,0,0,0-3.894-21.283c-1.07-1.373-2.141-2.746-3.3-4.319-.728-.639-1.456-1.278-2.219-1.891,0,0,.037-.022-.018-.191a.849.849,0,0,1-.4-.347,5.062,5.062,0,0,1-1.007-.79,14.317,14.317,0,0,1-1.432-.994,9.945,9.945,0,0,1-1.452-.944,3.759,3.759,0,0,1-.722-.324,30.113,30.113,0,0,0-11.707-3.732,1.725,1.725,0,0,1-.9-.146c-1.463-.015-2.925-.029-4.661-.139C89,37.4,88.441,37.3,87.88,37.3c-4.874-.015-9.747-.011-14.621-.014q-14.279-.008-28.559-.027c-.728,0-1.425-.088-1.34.969.062.766.2,1.532.2,2.3q.019,44.035.015,88.07c0,1.524,0,3.048,0,4.6,4.165,0,8,0,12.053.072a2.64,2.64,0,0,1,.78,0c1.96-.026,3.92-.051,6.134-.008a4.98,4.98,0,0,1,1.012,0,2.145,2.145,0,0,1,1.24-.062c.189-.284.543-.568.543-.853,0-10.5-.028-21,.024-31.721.008-.079.017-.159.345-.272,3.614,0,7.252.253,10.835-.082,3.474-.325,5.486.706,7.258,3.888,3.5,6.284,7.588,12.242,11.454,18.321,1.362,2.141,2.784,4.243,4.17,6.5a.564.564,0,0,1,.109.343,14.975,14.975,0,0,1,1.32,2.143c.745,1.811,2.1,2.085,4.1,1.8,6.9-.026,13.791-.052,20.956-.009,1.317-.7-.134-.987-.249-1.45,0,0,.036,0,0-.219A6.615,6.615,0,0,0,124.948,130.8Z" fill="none"/>
      <path id="Path_2" data-name="Path 2" d="M145.312,202a2.507,2.507,0,0,1-1.218.108c-.116-1.548-.116-2.9-.116-4.261l-.908,0-.126,4.385c-1.96.026-3.92.051-6.053-.057-.283-.239-.393-.344-.5-.449l-.329.514H124.231c0-1.554,0-3.078,0-4.6q0-44.035-.015-88.07c0-.766-.134-1.531-.2-2.3-.085-1.056.612-.97,1.34-.969q14.279.03,28.559.027c4.874,0,9.747,0,14.621.014a8.49,8.49,0,0,1,1.918.29c1.711.155,3.188.181,4.665.206a1.426,1.426,0,0,1,.77.107,1.662,1.662,0,0,1,.106.627.847.847,0,0,1-.11-.008c-1.334.122-2.558.252-3.782.388a.956.956,0,0,0-.319.111c-2.138,1.1-2.288,1.04-2.791-1.421l-1.635.918,1.546,2.742c-.233.532-1.743,1.42.033,2.38.057.031-.006.321-.043.483-.343,1.5.461,1.9,1.77,2s1.9.966,2.1,2.591c-3.228-1.5-4.709.768-6.523,2.6-2.194,2.674-4.791,1.273-7.354.759,1.514,1.067,1.851,2.028.411,3.212-.166.137-.124.527-.3.813-.893.258-1.667.5-2.571.79a7.276,7.276,0,0,1,1.248,1.3,25.541,25.541,0,0,0-6.832,7.153c-1.97,3.081-2.678,6.562-3.593,10.054a3.377,3.377,0,0,0-.645,1.509c.01,2.1.079,4.2.226,6.293a10.987,10.987,0,0,0,.648,2.278c.277.5.5.876.727,1.255.3-.318.609-.627.9-.957a6.32,6.32,0,0,1,.706-.779,2.186,2.186,0,0,0,.307-.808,4.993,4.993,0,0,1,.986-1.32c1.107.635,2.64-.238,3.231,1.357a8.654,8.654,0,0,1-.54,1.188.5.5,0,0,0-.183.386c-.379,1.608.926.476,1.393.907.779-.076,1.413-.166,2.186-.284a19.5,19.5,0,0,1,2.674-.275c.478.265.9.426,1.417.682.95.261,1.8.428,2.66.724a1.757,1.757,0,0,1-.142.9c-1.371-.075-2.606-.1-3.828-.243a26.279,26.279,0,0,1-2.663-.605c.07-.139-.092.183-.336.569a5.283,5.283,0,0,0,.083,1.1c-.081.778-.162,1.422-.293,2.47l2.147-2.031c.369,1.327.1,1.994-.887,2.529a10.183,10.183,0,0,0-1.763,1.548l.37.452a3.583,3.583,0,0,1,.9-.236c.711,0,1.884-.159,2.047.163.546,1.078-.567,1-1.2,1.282a1.519,1.519,0,0,0-.841.956c-.03.282.467.655.779.932.945.839,1.914,1.652,2.726,2.475-2.58.005-5.014-.059-7.443.034-2.523.1-5.04.348-7.56.531a.7.7,0,0,1-.178.383,4.071,4.071,0,0,0-.771,1.665c0,1.316.243,2.631.268,3.949.077,4.066.951,8.106-.57,12.2-.648,1.743-.023,3.958.018,5.958.018.891-.339,2.077.1,2.621,1.559,1.925.267,3.884.4,5.8M143.35,184.61a4.2,4.2,0,0,0,.829-.165,15.722,15.722,0,0,0-.166-1.692l-.613.051c-.032.517-.065,1.035-.05,1.806M153.593,160.7l.054.5.443-.115A.858.858,0,0,0,153.593,160.7Z" transform="translate(-80.66 -69.047)" fill="#fff"/>
      <path id="Path_3" data-name="Path 3" d="M218.483,157.808l.253-.5a26.287,26.287,0,0,0,2.663.605c1.222.14,2.456.167,3.968.242.831-.051,1.379-.1,1.928-.155l.026-.6-1.953-.277a14.582,14.582,0,0,1-2.66-.7c-.095-.351-.094-.5.013-.679a2.3,2.3,0,0,1,.785-.217,3.049,3.049,0,0,0,.959-.362,2.227,2.227,0,0,1,.937-.031,2.886,2.886,0,0,0,.318.359,6.9,6.9,0,0,0,1.11-.436.524.524,0,0,1,.357.1,8.9,8.9,0,0,0,2.117.228c1.062-.058,1.067-.624.516-1.491a1.272,1.272,0,0,1-.012-.456.485.485,0,0,1,.42-.121,6.307,6.307,0,0,0,.748-.313,1.543,1.543,0,0,1,.631-.328c.981.422,2.131,1.377,2.559-.254.316-1.2.991-1.192,1.942-1.069a4.262,4.262,0,0,0,.7-.856,7.342,7.342,0,0,1,1.406-.255,2.257,2.257,0,0,0,.593-.817,28.5,28.5,0,0,1,1.823-2.99c.613-.236,1.108-.452,1.736-.671.71-.268,1.287-.534,1.865-.8-.321-.306-.643-.613-1.08-.97a6.469,6.469,0,0,1-1.609-.462c-.069-.5-.133-.832-.187-1.237a.433.433,0,0,1,.306-.339c.844-1.037,2.6-1.088,2.732-2.66.719.483,1.346.895,2.1,1.324.681.962,1.234,1.908,1.915,3.071.438-.4,1.17-.824,1.481-1.453a1.664,1.664,0,0,0-.579-1.54,4.816,4.816,0,0,1-2.73-4.482c.027-.47-.585-.976-.9-1.591-.115-.5-.229-.876-.344-1.384-.143-1.2-.285-2.273-.453-3.442a.827.827,0,0,1,.085-.571c.311-.612.512-1.16.834-1.733a6.173,6.173,0,0,0,.582-1.48c-.025-1.608.622-3.253-1.042-4.486a4.926,4.926,0,0,1,.048-1.563,5.488,5.488,0,0,0,.838-.529c-.3-.285-.562-.707-.921-.826a24.8,24.8,0,0,0-2.646-.574c-.239.692-.506,1.465-.857,2.34-3.815.93-7.545,1.758-11.255,2.461.394-.961.411-1.538-.787-1.536a11.79,11.79,0,0,1-1.986-.325c1.706-1.782,3.186-4.05,6.414-2.55-.2-1.625-.793-2.489-2.1-2.591s-2.113-.506-1.77-2c.037-.162.1-.452.043-.483-1.775-.96-.266-1.848-.033-2.38l-1.546-2.742,1.635-.918c.5,2.462.653,2.522,2.791,1.421a.956.956,0,0,1,.319-.111c1.224-.137,2.449-.266,3.8-.345a1.82,1.82,0,0,1,.208.1l-.115-.136c0-.156,0-.312,0-.585a26.352,26.352,0,0,1,11.649,3.688,2.687,2.687,0,0,0,.652.344,6.569,6.569,0,0,1,1.428,1c.1.688.139,1.146.206,1.92l1.254-.95a5.735,5.735,0,0,1,1,.762c.157.266.254.32.371.339,0,0-.037.022-.043.134-.409,2.156-.125,2.384,2.317,1.978,1.07,1.373,2.141,2.746,3.178,4.353-.34,1.028-.835,1.225-1.657.906-.229-.089-.742.221-.929.487a.928.928,0,0,0,.236.862c1.671.572.743,1.556.384,2.361,1.265,1.986,2-.1,2.971-.393a12.6,12.6,0,0,1-.022,2c-.114.664-.505,1.285-.593,1.948-.3,2.281-.5,2.445-2.565,1.8-.554,2.7-.383,2.889,1.945,3.635a2.113,2.113,0,0,1,1.2,1.589,45.765,45.765,0,0,1-.866,6.311c-.083.406-.955.651-1.5.838a22.6,22.6,0,0,0-3.9-.175c-.258.013-.488.58-.731.892a11.751,11.751,0,0,0,1.146.643,7.4,7.4,0,0,0,1.126.28c-.755.54-1.248.893-1.849,1.262a9.258,9.258,0,0,1-.723.672c-.717.058-1.292.117-1.817.17.67,1.185,1.2,2.187,1.8,3.137.145.227.556.3.858.406.42.143.853.247,1.281.368a7.062,7.062,0,0,1-.562,1.84,5.922,5.922,0,0,1-1.52,1.321,2,2,0,0,0-.255.786,2.612,2.612,0,0,1-.453.937,15.956,15.956,0,0,1-2.308.222,2.2,2.2,0,0,0-.787-.579,3.367,3.367,0,0,1-.648-.039.532.532,0,0,1-.27-.448,11.15,11.15,0,0,1,.079-1.656c-.38-.369-.849-.922-1.3-.906a3.914,3.914,0,0,1-4.272-2.665c-.453-1.146-1.279-1.1-2.1-.142-.737.864-1.625,1.6-2.35,2.472a1.119,1.119,0,0,0,.041,1.088,7.587,7.587,0,0,0,1.748.662c.344-1.448.671-2.714,2.468-2.356l1.263,5.019c.83-.425,1.42-.726,2.1-1.028.086,0,.258,0,.272.121a16.975,16.975,0,0,0,1.473,1.993,5.042,5.042,0,0,1,1.266.432c.11,1.213-.582,1.291-1.419,1.15a9.269,9.269,0,0,1-.669-.719,16.113,16.113,0,0,0-2-1.091,13.09,13.09,0,0,1,.157,2.589,16.3,16.3,0,0,1-1.683-.057,25.4,25.4,0,0,1-.45-2.747l-2.743,2.151,1.285.8c-.506.1-.769.086-.93.205-.4.294-.743.651-1.11.983a4.649,4.649,0,0,0,1.382.685,6.868,6.868,0,0,0,1.766-.222c-.05.643-.089,1.142-.127,1.769.23.5.459.875.639,1.358-.687,1.01-.767,1.77.321,2.454a2.031,2.031,0,0,1,.619,1.223,7.441,7.441,0,0,0-1.48.092.718.718,0,0,0-.318.634c.049.2.39.487.565.462.81-.114,1.607-.324,2.49-.439a1.068,1.068,0,0,1,.172.713,4.751,4.751,0,0,0,.545,1.647,2.18,2.18,0,0,1,.907.461c-.217.619-.419,1.113-.8,2.043-.69-.832-1.361-1.294-1.5-1.881-.294-1.247-1.21-1.332-2.066-1.223a11.477,11.477,0,0,0-2.539.991c2.687.633,3.847,1.5,3.009,4.436-1.561.524-2.68,1.194-1.991,3.056.093.253-.323.694-.637,1.308l-1.156-1.883-1.64.514a10.468,10.468,0,0,0-.372-1.25,1.352,1.352,0,0,0-2.323-.524,37.079,37.079,0,0,0-2.255,3.278c2.2.66,1.876,2.277,1.763,3.746a4.713,4.713,0,0,1-.923-1.139,4.557,4.557,0,0,0-.759-.653,5.226,5.226,0,0,1-.273-1.069,2.507,2.507,0,0,0-.793-.6,18.521,18.521,0,0,1-1.2-2.765c.018-.125-.018-.218-.182-.314-2.093-.555-2.108-2.369-2.627-3.859-.158-.453-.233-1.213-.511-1.3-1.56-.481-2.014-1.885-2.737-3.048-.485-.78-1.022-1.151-1.916-.744-.96-.823-1.929-1.635-2.874-2.474-.312-.277-.809-.65-.779-.932a1.519,1.519,0,0,1,.841-.956c.635-.287,1.748-.2,1.2-1.282-.163-.322-1.336-.162-2.047-.163a3.586,3.586,0,0,0-.9.236l-.37-.452a10.183,10.183,0,0,1,1.763-1.548c.986-.534,1.256-1.2.887-2.529l-2.147,2.031a22.669,22.669,0,0,1,.4-2.485,3.822,3.822,0,0,0-.1-1.153m38.653-29.787-3.426,1.932c1.376,1.024,3.533.949,4.3-.188.524-.778,1.059-1.74-.873-1.744m-6.635,4.12-1.442,1.882.388.266,2.753-.6-1.055-3.427-.5.114a7.986,7.986,0,0,1-.148,1.769m6.6,4.055a11.5,11.5,0,0,0-1.37,1.348c-.075.1.338.824.567.847.442.043,1.274-.156,1.3-.349a3.333,3.333,0,0,0-.5-1.845m1.064,5.41.993-1.323-.536-.527-2.122,1.231a9.607,9.607,0,0,0,1.665.619m-33.476,22.508c-.339.181-.945.333-.969.55a10.406,10.406,0,0,0,.135,2.042l.664-.022a10.717,10.717,0,0,0,.17-2.57m16.572,11.238.882-.59-.179-.417-2.306.111-.064.518a13.7,13.7,0,0,0,1.667.379m-4.619-1.537-.456-1.408-.761.513a3.638,3.638,0,0,0,1.217.9M229.5,172.1l-.213-1.039a2.348,2.348,0,0,0-.688,1.634c-.006.124.4.267.614.4a4.993,4.993,0,0,0,.287-1m22.767-31.524.914-.578-.173-.34-2.052.129-.1.4a9.086,9.086,0,0,0,1.412.388m-1.853,12.414,1.338.04-.286-.884a2.543,2.543,0,0,0-1.052.844m-11.23,24.358.321-1.022-.762-.142a2.242,2.242,0,0,0,.441,1.164m-2.515-1.436-.844-.711-.362.832a2.26,2.26,0,0,0,1.206-.122m18.474-53.172-.21,1.024.744.03a2.352,2.352,0,0,0-.534-1.054m-7.5,8.03.338-.542-.273-.134a1.007,1.007,0,0,0-.065.676m4.171,6.522q0,.192,0,.384c.053,0,.153,0,.153,0a.388.388,0,0,0-.148-.386m-4.227-3.837c-.088-.093-.176-.187-.27-.274,0,0-.072.068-.111.1a.417.417,0,0,0,.381.169m-.249-9.247,0,.384c.053,0,.153,0,.153,0A.388.388,0,0,0,247.339,124.213Z" transform="translate(-142.082 -69.701)" fill="#fff"/>
      <path id="Path_4" data-name="Path 4" d="M274.907,298.629c.714-2.915-.446-3.787-3.132-4.42a11.482,11.482,0,0,1,2.539-.991c.856-.109,1.772-.024,2.066,1.223.138.587.81,1.049,1.5,1.881a16.594,16.594,0,0,1,.9-1.989,4.052,4.052,0,0,1,.817,1.546c-.336.413-.814,1.06-.7,1.189.552.63,1.068,1.648,2.3.955a6.589,6.589,0,0,0,.317.887c1.416,1.866,2.841,3.726,4.318,5.544.2.249.7.254,1.067.372a.388.388,0,0,1,.093.309c-.061,1.238-.1,2.25,1.419,2.037a.191.191,0,0,0-.053.155c-.117.686-.243,1.272-.369,1.858l.355-.261c1.47,1.964,2.962,3.912,4.4,5.9a10.152,10.152,0,0,1,1.72,2.812c.333,1.119.84,1.026,1.621.726,0,0,.031.045-.006.185a2.3,2.3,0,0,0,.575.691.219.219,0,0,0-.041.162c-.128.775-.265,1.441-.4,2.12l1.828-.217s-.059.03-.045.137a7.964,7.964,0,0,0,.715.908.175.175,0,0,0-.03.145,7.5,7.5,0,0,0,.732.891s-.036,0-.036.131c-.007.5-.013.878-.02,1.253-6.9.026-13.791.052-20.847-.089-.346-.487-.618-1.108-.707-1.082-1.892.536-2.417-.89-3.2-2.063-.274-.41-.9-.586-1.365-.869a.441.441,0,0,1-.083-.318c-.061-1-.134-1.786-.209-2.571-.055-.576-.113-1.152-.169-1.728l-1.67.3-.871-1.384a14.832,14.832,0,0,1,2.062-1.092c.82-.276,1.721-.31,2.539-.59.42-.144.734-.6,1.1-.909-.285-.322-.516-.748-.872-.931-.274-.141-.7.024-1.06.052-.363-3.1-.678-3.161-4.745-1.041l.46,1.622c-1.52-.853-1.52-.853.145-5.079l-3.922,1.841a9.54,9.54,0,0,1,.485-1.954c.5-.464.879-.913,1.4-1.363a10.855,10.855,0,0,1,1.671.084,1.586,1.586,0,0,0,2.021,1.27,3.319,3.319,0,0,0,.932-.53,8.323,8.323,0,0,1-.635-.91c0-.086,0-.258,0-.394.34-.719.677-1.3,1.014-1.886.244.485.471.98.738,1.452.155.274.42.747.553.72a1.363,1.363,0,0,0,.909-.589,3.344,3.344,0,0,0,.212-1.481C275.161,301.71,275.022,300.17,274.907,298.629Z" transform="translate(-173.717 -191.586)" fill="#fff"/>
      <path id="Path_5" data-name="Path 5" d="M330.351,170.4c.508-.319,1.381-.564,1.463-.97a45.775,45.775,0,0,0,.866-6.311,2.113,2.113,0,0,0-1.2-1.59c-2.329-.747-2.5-.94-1.945-3.635,2.068.642,2.264.478,2.565-1.8.088-.664.479-1.284.593-1.948a12.6,12.6,0,0,0,.022-2c-.973.29-1.706,2.379-2.971.393.359-.805,1.287-1.789-.384-2.361a.928.928,0,0,1-.236-.862c.188-.265.7-.575.929-.487.822.318,1.317.121,1.675-.789,4.112,6.391,5.087,13.476,3.91,20.932a31.205,31.205,0,0,1-1.5,5.5,54.6,54.6,0,0,1-5.574-2.7c-.294-.164-.364-.729-.654-1.363Z" transform="translate(-214.356 -96.414)" fill="#fff"/>
      <path id="Path_6" data-name="Path 6" d="M215.375,303.173a7.856,7.856,0,0,1-.241,1.944l3.922-1.841c-1.665,4.226-1.665,4.226-.145,5.079l-.46-1.622c4.067-2.121,4.382-2.06,4.745,1.041.355-.028.786-.193,1.06-.052.356.183.587.61.872.931-.362.313-.676.765-1.1.909-.817.28-1.719.314-2.539.59a14.836,14.836,0,0,0-2.062,1.092l.871,1.384,1.67-.3c.057.576.114,1.152.169,1.728.075.785.148,1.57.214,2.5-1.4-1.974-2.826-4.077-4.187-6.218-3.866-6.079-7.955-12.036-11.454-18.321-1.772-3.182-3.784-4.213-7.258-3.888-3.583.335-7.221.079-11,.1,2.36-.167,4.877-.417,7.4-.515,2.429-.094,4.863-.029,7.443-.034a1.471,1.471,0,0,1,2.063.744c.722,1.163,1.176,2.566,2.737,3.048.278.086.353.846.511,1.3.519,1.489.534,3.3,2.627,3.945a.34.34,0,0,1,.128.26c.379.9.757,1.808,1.273,2.843.355.287.574.444.792.6a7.232,7.232,0,0,0,.274,1.069,4.625,4.625,0,0,0,.759.653A6.746,6.746,0,0,0,215.375,303.173Z" transform="translate(-122.919 -187.87)" fill="#fff"/>
      <path id="Path_7" data-name="Path 7" d="M285.97,261.994c-.248-.418-.4-.993-.762-1.224-1.088-.685-1.008-1.444-.321-2.583a5.124,5.124,0,0,0-.639-1.358l.127-1.64a6.868,6.868,0,0,1-1.766.222,4.649,4.649,0,0,1-1.382-.685c.367-.332.715-.689,1.11-.983.161-.12.425-.1.93-.205l-1.285-.8,2.743-2.151c.134,1.04.239,1.866.45,2.9a18.33,18.33,0,0,1,.108,2.27c0,1.283.794,1.242,1.618.868a22.86,22.86,0,0,0,2.266-1.369c-1.051-.932-.93-1.83.244-2.558.794.05,1.486-.028,1.488-1.292.382-.727.652-1.267.922-1.807a15.053,15.053,0,0,1,2.278-.21c-1.2,1.93-2.5,3.753-3.8,5.577.965.09,1.779.054,2.127-.367a6.6,6.6,0,0,1,4.456-2.44,27.291,27.291,0,0,1-11.194,7.033c.865,1.31,1.676,2.537,2.464,3.926a.269.269,0,0,1-.245.26c-.264,0-.415-.006-.566-.007a2.689,2.689,0,0,0-.328-.712A11.943,11.943,0,0,0,285.97,261.994Z" transform="translate(-183.747 -162.869)" fill="#fff"/>
      <path id="Path_8" data-name="Path 8" d="M314.174,233.556A6.63,6.63,0,0,0,309.719,236c-.347.421-1.162.458-2.127.367,1.3-1.823,2.6-3.646,3.914-5.59a8.593,8.593,0,0,1,.431-1.1,1.923,1.923,0,0,1,.411-.738c1.431.022,2.8-.329,2.846-1.707a10.212,10.212,0,0,0-1.087-3.9c-.115-.287-1.017-.178-1.4-.462-.293-.216-.34-.765-.5-1.165a2.031,2.031,0,0,1,.719-.672c1.958-.088,2.757.735,2.735,2.441-.014,1.12.494,1.547,1.586,1.094-.065-.812-.125-1.548-.165-2.041l3.387,1.332a.272.272,0,0,1-.187.237c-.743.909-1.249,1.776-1.865,2.556-.466.59-1.09,1.052-1.61,1.6-.34.361-.909.8-.877,1.166.136,1.5-.5,1.416-1.491.89a6.179,6.179,0,0,0-.59-.241l-.608,1,.936,2.49s-.006-.015,0-.008m4.065-8.6Z" transform="translate(-201.034 -144.274)" fill="#fff"/>
      <path id="Path_9" data-name="Path 9" d="M184.4,323.284c-.2-2.037,1.089-4-.47-5.921-.44-.544-.083-1.73-.1-2.621-.041-2-.666-4.215-.018-5.958,1.521-4.091.647-8.13.57-12.2-.025-1.318-.268-2.633-.268-3.949a3.464,3.464,0,0,1,.731-1.552c.139,10.467.17,20.965.168,31.463C185.009,322.835,184.655,323.119,184.4,323.284Z" transform="translate(-119.676 -190.211)" fill="#fff"/>
      <path id="Path_10" data-name="Path 10" d="M329.643,217.894c-1.169-.354-2.256-.782-3.469-1.259.04.493.1,1.229.165,2.041-1.092.452-1.6.025-1.586-1.094.022-1.707-.776-2.53-2.626-2.457a13.585,13.585,0,0,1,1.6-1.246,7.408,7.408,0,0,1-1.126-.28,11.758,11.758,0,0,1-1.146-.643c.243-.312.473-.879.731-.892a22.6,22.6,0,0,1,3.9.175,12.908,12.908,0,0,1-2.408.133c.29.634.36,1.2.654,1.363,1.751.975,3.554,1.857,5.47,2.775a3.24,3.24,0,0,1-.159,1.385m-4.046-2.665-.542-.338-.134.273A1.007,1.007,0,0,0,325.6,215.229Z" transform="translate(-210.124 -138.38)" fill="#fff"/>
      <path id="Path_11" data-name="Path 11" d="M302.3,293.52c-.276-.538-.553-1.076-.931-1.668a5.653,5.653,0,0,1-1.01-.513,7.739,7.739,0,0,1,.21-1.6s.11-.1.167-.15c2.939,4.184,5.821,8.417,8.718,12.764-.347,0-.849-.008-1.051-.257-1.477-1.818-2.9-3.678-4.318-5.544a4.927,4.927,0,0,1-.32-1.01C303.217,294.732,302.76,294.126,302.3,293.52Z" transform="translate(-196.293 -189.231)" fill="#fff"/>
      <path id="Path_12" data-name="Path 12" d="M325.032,239.45A19.309,19.309,0,0,1,324,237.016l.608-1a6.163,6.163,0,0,1,.59.241c.989.525,1.627.613,1.491-.89-.033-.361.536-.805.877-1.166.52-.551,1.144-1.013,1.61-1.6.616-.78,1.122-1.647,1.8-2.507A23.543,23.543,0,0,1,325.032,239.45Z" transform="translate(-211.795 -150.215)" fill="#fff"/>
      <path id="Path_13" data-name="Path 13" d="M338.054,345.129c-.749.408-1.255.5-1.589-.617a10.157,10.157,0,0,0-1.721-2.813c-1.44-1.986-2.931-3.934-4.4-5.9l-.355.261c.126-.586.252-1.172.4-1.89C332.942,337.7,335.481,341.36,338.054,345.129Z" transform="translate(-215.719 -218.462)" fill="#fff"/>
      <path id="Path_14" data-name="Path 14" d="M287.156,373.349a2.678,2.678,0,0,1,1.358.749c.784,1.172,1.309,2.6,3.2,2.063.089-.025.36.595.55,1.039-1.684.5-3.038.224-3.783-1.587C288.168,374.847,287.61,374.181,287.156,373.349Z" transform="translate(-187.634 -244.151)" fill="#fff"/>
      <path id="Path_15" data-name="Path 15" d="M179.272,376.616c-.085-1.5-.043-2.958,0-4.419l.908,0c0,1.357,0,2.713,0,4.228A1.369,1.369,0,0,1,179.272,376.616Z" transform="translate(-116.861 -243.394)" fill="#fff"/>
      <path id="Path_16" data-name="Path 16" d="M324.969,131.163c-2.4.506-2.68.277-2.254-1.892A18.377,18.377,0,0,1,324.969,131.163Z" transform="translate(-210.842 -84.108)" fill="#fff"/>
      <path id="Path_17" data-name="Path 17" d="M355.674,371.064a9.586,9.586,0,0,1-1.8.33c.139-.679.275-1.344.426-2.147A12.059,12.059,0,0,1,355.674,371.064Z" transform="translate(-231.379 -241.461)" fill="#fff"/>
      <path id="Path_18" data-name="Path 18" d="M263.717,107.391a36.437,36.437,0,0,1-4.409-.06A36.433,36.433,0,0,1,263.717,107.391Z" transform="translate(-169.373 -69.695)" fill="#fff"/>
      <path id="Path_19" data-name="Path 19" d="M328.43,329.954c-1.48.324-1.441-.688-1.38-1.857A13.462,13.462,0,0,1,328.43,329.954Z" transform="translate(-213.778 -214.479)" fill="#fff"/>
      <path id="Path_20" data-name="Path 20" d="M316.425,123.947A6.622,6.622,0,0,1,315.214,125c-.068-.773-.108-1.232-.139-1.83A4.229,4.229,0,0,1,316.425,123.947Z" transform="translate(-205.941 -80.107)" fill="#fff"/>
      <path id="Path_21" data-name="Path 21" d="M363.174,382.539a3.689,3.689,0,0,1-.1-1.3C363.175,381.587,364.626,381.87,363.174,382.539Z" transform="translate(-237.405 -249.323)" fill="#fff"/>
      <path id="Path_22" data-name="Path 22" d="M359.8,376.014a2.537,2.537,0,0,1-.675-.821A2.536,2.536,0,0,1,359.8,376.014Z" transform="translate(-234.823 -245.36)" fill="#fff"/>
      <path id="Path_23" data-name="Path 23" d="M361.79,379.055a2.53,2.53,0,0,1-.7-.8A2.53,2.53,0,0,1,361.79,379.055Z" transform="translate(-236.115 -247.366)" fill="#fff"/>
      <path id="Path_24" data-name="Path 24" d="M354.07,367.494a1.264,1.264,0,0,1-.551-.57A1.264,1.264,0,0,1,354.07,367.494Z" transform="translate(-231.149 -239.938)" fill="#fff"/>
      <path id="Path_25" data-name="Path 25" d="M159.327,384.017a1,1,0,0,1,.216-.55,1.869,1.869,0,0,1,.346.415A.711.711,0,0,1,159.327,384.017Z" transform="translate(-103.815 -250.785)" fill="#fff"/>
      <path id="Path_26" data-name="Path 26" d="M309.646,119.4a.768.768,0,0,1-.506-.181A.768.768,0,0,1,309.646,119.4Z" transform="translate(-202.049 -77.515)" fill="#fff"/>
      <path id="Path_27" data-name="Path 27" d="M322.445,128.374c-.089.066-.186.012-.3-.152C322.205,128.2,322.311,128.243,322.445,128.374Z" transform="translate(-210.573 -83.415)" fill="#fff"/>
      <path id="Path_28" data-name="Path 28" d="M213.193,177.426c-.1-.008-.188.015-.445.152-1.208.481-2.241.879-3.374,1.279-.273.087-.445.173-.7.251a.626.626,0,0,0-.238.069c-.259.013-.518.026-.994.075a9.646,9.646,0,0,0-.964.322,2.878,2.878,0,0,1-.816.235c-.611.007-.982.03-1.353.052-.826.117-1.653.234-2.758.353-.917.1-1.554.2-2.192.3-.321-.417-1.627.715-1.178-.926.185-.19.216-.279.169-.395.156-.344.311-.689.594-1.21.706-1.276,1.225-2.411,1.873-3.467a67.959,67.959,0,0,1,11.3-13.232c1.572-1.508,3.061-3.1,4.588-4.656l-.424-.434c-9.293,4.35-16.019,11.4-20.831,20.467-.268.415-.536.829-.929,1.4a3.88,3.88,0,0,0-.32.767c-.2.259-.381.529-.594.774-.287.329-.6.639-.9.957a9.837,9.837,0,0,1-.723-1.416c-.071-3.5-.094-6.723-.116-9.944.8-3.467,1.508-6.948,3.478-10.029a24.822,24.822,0,0,1,6.944-7.176c.926-.609,1.677-1.095,2.544-1.574.247-.064.377-.135.626-.221,1.2-.663,2.272-1.31,3.469-1.958.492-.139.862-.278,1.348-.4.268,0,.42-.017.7,0,.5-.089.88-.205,1.344-.323a2.989,2.989,0,0,1,.361-.052,6.507,6.507,0,0,0,.925-.372c3.73-.828,7.46-1.656,11.418-2.586,1.257-.2,2.286-.3,3.315-.4.015.472.029.944.046,1.706-.083,1.421-.181,2.551-.25,3.683-.08,1.308-.135,2.618-.2,3.927a2.946,2.946,0,0,1-.058.609c-.458,2.419-.857,4.636-1.356,6.93-.7,1.768-1.3,3.459-1.9,5.15a1,1,0,0,0-.259.408,23.405,23.405,0,0,1-9.751,10.183,1.76,1.76,0,0,1-.663.4A2.391,2.391,0,0,0,213.193,177.426Z" transform="translate(-125.151 -93.824)" fill="none"/>
      <path id="Path_29" data-name="Path 29" d="M202.71,199.734c4.656-9.1,11.382-16.146,20.675-20.5l.424.434c-1.527,1.554-3.016,3.148-4.588,4.656a67.956,67.956,0,0,0-11.3,13.232c-.648,1.056-1.167,2.191-1.856,3.353C205.35,199.5,203.817,200.369,202.71,199.734Z" transform="translate(-132.262 -116.872)" fill="#fff"/>
      <path id="Path_30" data-name="Path 30" d="M227.277,152.208a.774.774,0,0,1-.574.1,9.626,9.626,0,0,0-1.146-.391c.054-.273.012-.663.178-.8,1.44-1.183,1.1-2.145-.411-3.212,2.564.514,5.16,1.915,7.354-.759.771.067,1.433.277,2.095.276,1.2,0,1.181.574.787,1.536a1.7,1.7,0,0,1-.987.434,1.03,1.03,0,0,0-.548-.226,7.222,7.222,0,0,1-1.306-.08,3.1,3.1,0,0,0-.621.736,4.626,4.626,0,0,1-1.3.33c-.923-.253-1.661-.419-2.341-.573Z" transform="translate(-147.09 -95.826)" fill="#fff"/>
      <path id="Path_31" data-name="Path 31" d="M190.3,217.07c.138,3.2.16,6.417.179,9.8a7.2,7.2,0,0,1-.6-2c-.147-2.093-.215-4.194-.226-6.293A3.378,3.378,0,0,1,190.3,217.07Z" transform="translate(-123.702 -141.678)" fill="#fff"/>
      <path id="Path_32" data-name="Path 32" d="M220.757,161.037a3.682,3.682,0,0,1,1.148.372,15.039,15.039,0,0,1-2.3,1.589,9.973,9.973,0,0,1-1.424-1.171C219.089,161.54,219.863,161.3,220.757,161.037Z" transform="translate(-142.409 -104.937)" fill="#fff"/>
      <path id="Path_33" data-name="Path 33" d="M180.109,330.081c.009-.644.041-1.162.074-1.679l.613-.051a15.714,15.714,0,0,1,.166,1.692A1.668,1.668,0,0,1,180.109,330.081Z" transform="translate(-117.442 -214.645)" fill="#fff"/>
      <path id="Path_34" data-name="Path 34" d="M240,252.359a9.954,9.954,0,0,1,1.953.148l-.026.6c-.549.052-1.1.1-1.786.156A1.776,1.776,0,0,1,240,252.359Z" transform="translate(-156.714 -164.812)" fill="#fff"/>
      <path id="Path_35" data-name="Path 35" d="M219.746,254.19a1.623,1.623,0,0,1,.186.953A1.622,1.622,0,0,1,219.746,254.19Z" transform="translate(-143.428 -166.017)" fill="#fff"/>
      <path id="Path_36" data-name="Path 36" d="M228.16,248.042a2.768,2.768,0,0,1,1.19-.122.909.909,0,0,1,.132.6A3.619,3.619,0,0,1,228.16,248.042Z" transform="translate(-148.95 -161.9)" fill="#fff"/>
      <path id="Path_37" data-name="Path 37" d="M210.1,264.231a1.265,1.265,0,0,1,.4.4l-.443.115A.956.956,0,0,1,210.1,264.231Z" transform="translate(-137.068 -172.601)" fill="#fff"/>
      <path id="Path_38" data-name="Path 38" d="M214.043,249.38a15.316,15.316,0,0,1,1.907-.281A15.31,15.31,0,0,1,214.043,249.38Z" transform="translate(-139.693 -162.679)" fill="#fff"/>
      <path id="Path_39" data-name="Path 39" d="M198.926,243.7a.842.842,0,0,1,.181-.657A.842.842,0,0,1,198.926,243.7Z" transform="translate(-129.771 -158.708)" fill="#fff"/>
      <path id="Path_40" data-name="Path 40" d="M210.275,246.16c.1.075.072.163-.107.257C210.112,246.353,210.152,246.271,210.275,246.16Z" transform="translate(-137.136 -160.752)" fill="#fff"/>
      <path id="Path_41" data-name="Path 41" d="M271.884,309.045a43.99,43.99,0,0,1,.454,4.607,3.344,3.344,0,0,1-.212,1.481,1.363,1.363,0,0,1-.909.589c-.133.027-.4-.446-.553-.72-.267-.472-.494-.967-.738-1.452-.337.583-.674,1.167-1.139,1.888a9.459,9.459,0,0,1-1.188.619l.3.564,1.011-.706.635.824a3.32,3.32,0,0,1-.932.53c-.964.181-1.684-.144-2.021-1.416a28.384,28.384,0,0,1,.027-2.852l-.423-.167-1.418,3.082a14.928,14.928,0,0,1-1.259,1.363c-.132-1.458.193-3.075-2.008-3.735a37.081,37.081,0,0,1,2.255-3.278,1.352,1.352,0,0,1,2.323.524,10.468,10.468,0,0,1,.372,1.25l1.64-.514,1.156,1.883c.313-.614.73-1.056.637-1.308-.688-1.862.43-2.532,1.991-3.056m-3.568,5.321.113-.573-.409-.006A.825.825,0,0,0,268.316,314.366Z" transform="translate(-170.818 -201.986)" fill="#fff"/>
      <path id="Path_42" data-name="Path 42" d="M285.428,235.474l-2.01,1.028-1.263-5.019c-1.8-.358-2.123.909-2.468,2.357a7.593,7.593,0,0,1-1.748-.662,1.12,1.12,0,0,1-.041-1.088c.725-.872,1.613-1.608,2.35-2.472.821-.963,1.647-1,2.1.142a3.914,3.914,0,0,0,4.272,2.665c.449-.015.917.537,1.187.858-2.046-.389-2.06,1.055-2.378,2.193m-1.656-2.212q0-.192,0-.384c-.053,0-.153,0-.153,0A.388.388,0,0,0,283.772,233.262Z" transform="translate(-181.484 -149.433)" fill="#fff"/>
      <path id="Path_43" data-name="Path 43" d="M258.126,219.615a24.682,24.682,0,0,0,9.663-10.213,3,3,0,0,1,.271,1.2c-.173.553-.291.952-.528,1.043-1,.385-.9,1.008-.5,1.753-.563.947-1.126,1.893-1.8,3.012-.276.373-.445.574-.614.775a9.811,9.811,0,0,0-1.4.27,4.464,4.464,0,0,0-.663.763c-.882-.046-1.557-.059-1.873,1.145C260.256,220.992,259.107,220.037,258.126,219.615Z" transform="translate(-168.598 -136.65)" fill="#fff"/>
      <path id="Path_44" data-name="Path 44" d="M298.375,187c.319.489.93,1,.9,1.465a4.815,4.815,0,0,0,2.73,4.482,1.664,1.664,0,0,1,.579,1.54c-.311.63-1.042,1.052-1.481,1.453-.681-1.163-1.234-2.109-1.929-3.191a17.234,17.234,0,0,1-1.131-2.437c.12-.732.224-1.334.328-2.073Z" transform="translate(-194.775 -121.961)" fill="#fff"/>
      <path id="Path_45" data-name="Path 45" d="M317.124,223c.3.4.347.95.639,1.166.385.284,1.286.175,1.4.462a10.213,10.213,0,0,1,1.087,3.9c-.049,1.378-1.415,1.729-2.846,1.707.346-.429.95-.783,1.282-1.309a7.064,7.064,0,0,0,.563-1.84c-.428-.121-.861-.224-1.281-.368-.3-.1-.713-.179-.858-.406-.608-.95-1.134-1.952-1.8-3.137C315.832,223.117,316.406,223.058,317.124,223Z" transform="translate(-206.092 -145.566)" fill="#fff"/>
      <path id="Path_46" data-name="Path 46" d="M297.089,257.6c-1.13.818-1.252,1.716-.2,2.648a22.866,22.866,0,0,1-2.266,1.369c-.824.374-1.615.416-1.618-.868,0-.686,0-1.371,0-2.214a5.691,5.691,0,0,1,1.694-.17A11,11,0,0,0,296.443,257,6.845,6.845,0,0,1,297.089,257.6Z" transform="translate(-191.466 -167.86)" fill="#fff"/>
      <path id="Path_47" data-name="Path 47" d="M325.865,167.333c1.81.056,1.275,1.019.751,1.8-.766,1.137-2.923,1.212-4.3.188C323.477,168.663,324.61,168.025,325.865,167.333Z" transform="translate(-210.689 -109.065)" fill="#fff"/>
      <path id="Path_48" data-name="Path 48" d="M296.9,156.851c-.044-1.245.011-2.554.091-3.863.069-1.132.167-2.262.285-3.546,1.662.942,1.015,2.588.918,4.221a11.717,11.717,0,0,0-.582,1.48A14.768,14.768,0,0,1,296.9,156.851Z" transform="translate(-194.013 -97.334)" fill="#fff"/>
      <path id="Path_49" data-name="Path 49" d="M291.764,140.387c-1.156.11-2.186.211-3.358.311a13.578,13.578,0,0,1,.629-2.239,24.791,24.791,0,0,1,2.646.574c.359.118.617.541.92.826A5.482,5.482,0,0,1,291.764,140.387Z" transform="translate(-188.453 -90.132)" fill="#fff"/>
      <path id="Path_50" data-name="Path 50" d="M310.324,175.765a13.375,13.375,0,0,0,.074-1.669l.5-.114,1.055,3.427-2.753.6-.388-.266C309.288,177.12,309.769,176.493,310.324,175.765Z" transform="translate(-201.83 -113.425)" fill="#fff"/>
      <path id="Path_51" data-name="Path 51" d="M287.335,198.175a46.264,46.264,0,0,1,1.808-5.1c.128-.053.182,0,.172.112.213.486.437.857.66,1.356,0,.387,0,.645,0,.9C289.932,197.087,288.179,197.138,287.335,198.175Z" transform="translate(-187.751 -125.93)" fill="#fff"/>
      <path id="Path_52" data-name="Path 52" d="M292.876,179.982c.371-2.241.77-4.458,1.252-6.778a16.243,16.243,0,0,1,.4,3.3c-.38,1.071-.652,1.948-.939,2.932a3.932,3.932,0,0,1-.634.617Z" transform="translate(-191.384 -112.915)" fill="#fff"/>
      <path id="Path_53" data-name="Path 53" d="M283.608,215.952c-.524-.725-.617-1.348.38-1.733.237-.092.355-.49.532-.874a3.227,3.227,0,0,1,1.605.291,6.457,6.457,0,0,1-.914,1.648C284.716,215.5,284.221,215.716,283.608,215.952Z" transform="translate(-185.054 -139.227)" fill="#fff"/>
      <path id="Path_54" data-name="Path 54" d="M300.25,243.8c.232-1.137.247-2.581,2.213-2.115a3.787,3.787,0,0,1-.019,1.643,10.615,10.615,0,0,1-1.935.471Z" transform="translate(-196.219 -157.76)" fill="#fff"/>
      <path id="Path_55" data-name="Path 55" d="M329.658,191.393a3.976,3.976,0,0,1,.387,1.789c-.028.193-.861.392-1.3.349-.228-.022-.642-.747-.567-.847A5.813,5.813,0,0,1,329.658,191.393Z" transform="translate(-214.524 -124.842)" fill="#fff"/>
      <path id="Path_56" data-name="Path 56" d="M307.624,248.689a16.644,16.644,0,0,1-.922,1.67,3.14,3.14,0,0,1-1.376-.37,9.385,9.385,0,0,1,.921-1.989,1.405,1.405,0,0,1,.59.109C307.186,248.375,307.4,248.532,307.624,248.689Z" transform="translate(-199.548 -161.959)" fill="#fff"/>
      <path id="Path_57" data-name="Path 57" d="M331.955,203.428a15.573,15.573,0,0,1-1.529-.626l2.122-1.231.536.527A10.292,10.292,0,0,1,331.955,203.428Z" transform="translate(-216.006 -131.515)" fill="#fff"/>
      <path id="Path_58" data-name="Path 58" d="M236.245,272.581a19.432,19.432,0,0,1-.267,2.479l-.664.022a10.407,10.407,0,0,1-.135-2.042C235.2,272.823,235.808,272.672,236.245,272.581Z" transform="translate(-153.538 -178.077)" fill="#fff"/>
      <path id="Path_59" data-name="Path 59" d="M299.126,254.571a9.063,9.063,0,0,1-1.582,1.485,16.334,16.334,0,0,1-.416-2.576A16.12,16.12,0,0,1,299.126,254.571Z" transform="translate(-194.173 -165.552)" fill="#fff"/>
      <path id="Path_60" data-name="Path 60" d="M303.362,247.336c-.269.644-.612,1.249-.957,1.98a12.383,12.383,0,0,1-1.366-1.819,9.607,9.607,0,0,1,1.922-.449C303.131,247.139,303.2,247.228,303.362,247.336Z" transform="translate(-196.737 -161.334)" fill="#fff"/>
      <path id="Path_61" data-name="Path 61" d="M295.144,198.1a1.478,1.478,0,0,1,.037-.973,2.518,2.518,0,0,1,.9-.13c.335.723.671,1.447,1.02,2.29A16.133,16.133,0,0,1,295.144,198.1Z" transform="translate(-192.829 -128.518)" fill="#fff"/>
      <path id="Path_62" data-name="Path 62" d="M295,185.87c.272-.877.543-1.755.924-2.693a3.234,3.234,0,0,1,.453,1.191,4.64,4.64,0,0,1-.138,1.365A4.242,4.242,0,0,1,295,185.87Z" transform="translate(-192.778 -119.454)" fill="#fff"/>
      <path id="Path_63" data-name="Path 63" d="M248.148,242.992c.538.732.533,1.3-.529,1.356a5.964,5.964,0,0,1-2-.277A19.652,19.652,0,0,1,248.148,242.992Z" transform="translate(-160.395 -158.675)" fill="#fff"/>
      <path id="Path_64" data-name="Path 64" d="M291.148,286a4.844,4.844,0,0,1,1.11.6,12.258,12.258,0,0,1-2.342.583c-.175.025-.516-.264-.565-.462a.718.718,0,0,1,.318-.634A7.438,7.438,0,0,1,291.148,286Z" transform="translate(-189.068 -186.876)" fill="#fff"/>
      <path id="Path_65" data-name="Path 65" d="M282.858,303.043c-.6-.124-1.067-.254-1.533-.385l.064-.518,2.306-.111.179.417A7.354,7.354,0,0,1,282.858,303.043Z" transform="translate(-183.81 -197.386)" fill="#fff"/>
      <path id="Path_66" data-name="Path 66" d="M270.322,297.861a6.493,6.493,0,0,1-1.108-.946l.761-.513A6.4,6.4,0,0,1,270.322,297.861Z" transform="translate(-175.869 -193.696)" fill="#fff"/>
      <path id="Path_67" data-name="Path 67" d="M246.429,241.891a21.227,21.227,0,0,1-2.619,1.117.774.774,0,0,1-.443.012c-.249-.1-.315-.179-.355-.281,1.033-.4,2.065-.8,3.23-1.222C246.388,241.579,246.4,241.668,246.429,241.891Z" transform="translate(-158.688 -157.708)" fill="#fff"/>
      <path id="Path_68" data-name="Path 68" d="M250.28,293.673a6.981,6.981,0,0,1-.286.867c-.216-.134-.62-.278-.614-.4a2.348,2.348,0,0,1,.688-1.634C250.139,292.851,250.21,293.2,250.28,293.673Z" transform="translate(-162.864 -191.141)" fill="#fff"/>
      <path id="Path_69" data-name="Path 69" d="M315.3,202.219c-.514-.128-.9-.26-1.283-.393l.1-.4,2.052-.129.173.34A8.038,8.038,0,0,1,315.3,202.219Z" transform="translate(-205.249 -131.335)" fill="#fff"/>
      <path id="Path_70" data-name="Path 70" d="M289.384,215.956c.21-.488.552-.979.9-1.594a5.333,5.333,0,0,1,.967.795C290.671,215.422,290.094,215.687,289.384,215.956Z" transform="translate(-189.094 -139.902)" fill="#fff"/>
      <path id="Path_71" data-name="Path 71" d="M312.562,238.305a4.864,4.864,0,0,1,1.113-.737l.286.884A6.6,6.6,0,0,1,312.562,238.305Z" transform="translate(-204.293 -155.119)" fill="#fff"/>
      <path id="Path_72" data-name="Path 72" d="M279.158,308.558a4.116,4.116,0,0,1-.319-1.172l.762.142A3.86,3.86,0,0,1,279.158,308.558Z" transform="translate(-182.18 -200.898)" fill="#fff"/>
      <path id="Path_73" data-name="Path 73" d="M270.477,305.357a3.979,3.979,0,0,1-1.166.007l.362-.832A4.073,4.073,0,0,1,270.477,305.357Z" transform="translate(-175.932 -199.027)" fill="#fff"/>
      <path id="Path_74" data-name="Path 74" d="M299.394,290.015a7.713,7.713,0,0,1-.207,1.59,5.179,5.179,0,0,1-.45-1.512A1.636,1.636,0,0,1,299.394,290.015Z" transform="translate(-195.228 -189.507)" fill="#fff"/>
      <path id="Path_75" data-name="Path 75" d="M326.191,152.2a4,4,0,0,1,.416,1.042l-.744-.03A3.26,3.26,0,0,1,326.191,152.2Z" transform="translate(-213.014 -99.139)" fill="#fff"/>
      <path id="Path_76" data-name="Path 76" d="M241.542,245.07a4.381,4.381,0,0,0,.37.28,1.444,1.444,0,0,1-.955.374c-.023-.264-.028-.329-.032-.395A3.916,3.916,0,0,1,241.542,245.07Z" transform="translate(-157.319 -160.038)" fill="#fff"/>
      <path id="Path_77" data-name="Path 77" d="M290,271.374a4.249,4.249,0,0,1,.688,1.12A4.249,4.249,0,0,1,290,271.374Z" transform="translate(-189.499 -177.285)" fill="#fff"/>
      <path id="Path_78" data-name="Path 78" d="M299.354,163.4a3.063,3.063,0,0,1,.445-1.327A3.061,3.061,0,0,1,299.354,163.4Z" transform="translate(-195.632 -105.616)" fill="#fff"/>
      <path id="Path_79" data-name="Path 79" d="M271.2,233.8a1.544,1.544,0,0,1,.511-.749A1.544,1.544,0,0,1,271.2,233.8Z" transform="translate(-177.17 -152.154)" fill="#fff"/>
      <path id="Path_80" data-name="Path 80" d="M304.493,174.124a1.517,1.517,0,0,1,.135-.6l.273.134A1.3,1.3,0,0,1,304.493,174.124Z" transform="translate(-199.001 -113.123)" fill="#fff"/>
      <path id="Path_81" data-name="Path 81" d="M277.323,230.769a1.605,1.605,0,0,1,.486-.644A1.605,1.605,0,0,1,277.323,230.769Z" transform="translate(-181.186 -150.238)" fill="#fff"/>
      <path id="Path_82" data-name="Path 82" d="M262.7,328.788a1.372,1.372,0,0,1-.656-.47A1.372,1.372,0,0,1,262.7,328.788Z" transform="translate(-171.17 -214.624)" fill="#fff"/>
      <path id="Path_83" data-name="Path 83" d="M234.593,246.73a1.329,1.329,0,0,1,.743-.326A1.329,1.329,0,0,1,234.593,246.73Z" transform="translate(-153.168 -160.912)" fill="#fff"/>
      <path id="Path_84" data-name="Path 84" d="M259.7,323.788a1.373,1.373,0,0,1-.656-.47A1.373,1.373,0,0,1,259.7,323.788Z" transform="translate(-169.203 -211.345)" fill="#fff"/>
      <path id="Path_85" data-name="Path 85" d="M320.383,244.034a.883.883,0,0,1-.164.617A.883.883,0,0,1,320.383,244.034Z" transform="translate(-209.307 -159.359)" fill="#fff"/>
      <path id="Path_86" data-name="Path 86" d="M310.7,248.787a1.374,1.374,0,0,1-.656-.47A1.374,1.374,0,0,1,310.7,248.787Z" transform="translate(-202.643 -162.167)" fill="#fff"/>
      <path id="Path_87" data-name="Path 87" d="M316.883,194.428a.6.6,0,0,1,.068.385s-.1,0-.153,0A.667.667,0,0,1,316.883,194.428Z" transform="translate(-207.07 -126.831)" fill="#fff"/>
      <path id="Path_88" data-name="Path 88" d="M303.752,182.815a.675.675,0,0,1-.323-.224c.039-.037.109-.107.111-.105A.611.611,0,0,1,303.752,182.815Z" transform="translate(-198.304 -119.001)" fill="#fff"/>
      <path id="Path_89" data-name="Path 89" d="M303.883,156.428a.6.6,0,0,1,.068.385s-.1,0-.153,0A.667.667,0,0,1,303.883,156.428Z" transform="translate(-198.546 -101.914)" fill="#fff"/>
      <path id="Path_90" data-name="Path 90" d="M254.121,240.322a.9.9,0,0,1,.539-.318A.9.9,0,0,1,254.121,240.322Z" transform="translate(-165.973 -156.716)" fill="#fff"/>
      <path id="Path_91" data-name="Path 91" d="M255.054,314.477c-.054.032-.054-.14-.054-.226C255.036,314.258,255.072,314.351,255.054,314.477Z" transform="translate(-166.549 -205.4)" fill="#fff"/>
      <path id="Path_92" data-name="Path 92" d="M240.287,245.8c.09.073.094.138.1.3-.1.063-.192,0-.3-.16C240.05,245.869,240.2,245.792,240.287,245.8Z" transform="translate(-156.767 -160.516)" fill="#fff"/>
      <path id="Path_93" data-name="Path 93" d="M275,110l.116.136a.293.293,0,0,1-.1-.091C275,110,275,110,275,110Z" transform="translate(-179.664 -71.471)" fill="#fff"/>
      <path id="Path_94" data-name="Path 94" d="M271.417,323.131a27.978,27.978,0,0,1,1.275-3.082l.423.167c-.04.874-.08,1.748-.12,2.768A5.3,5.3,0,0,1,271.417,323.131Z" transform="translate(-177.313 -209.202)" fill="#fff"/>
      <path id="Path_95" data-name="Path 95" d="M304.256,301.013a11.281,11.281,0,0,1,1.5,1.937c-1.137.9-1.652-.118-2.2-.748C303.442,302.074,303.92,301.426,304.256,301.013Z" transform="translate(-198.375 -196.72)" fill="#fff"/>
      <path id="Path_96" data-name="Path 96" d="M280.5,328.262a8.115,8.115,0,0,1-1.011.792l-.3-.564a11.97,11.97,0,0,1,1.185-.484C280.5,328,280.5,328.176,280.5,328.262Z" transform="translate(-182.412 -214.419)" fill="#fff"/>
      <path id="Path_97" data-name="Path 97" d="M338.535,232.467Z" transform="translate(-221.321 -151.771)" fill="#fff"/>
      <path id="Path_98" data-name="Path 98" d="M332.125,220.729a1.517,1.517,0,0,1-.6-.135l.134-.273A1.3,1.3,0,0,1,332.125,220.729Z" transform="translate(-216.724 -143.809)" fill="#fff"/>
      <path id="Path_99" data-name="Path 99" d="M231.342,156.827a25.669,25.669,0,0,1,1.063-2.618c.68.154,1.418.321,2.22.574A31.706,31.706,0,0,1,231.342,156.827Z" transform="translate(-151.036 -100.46)" fill="#fff"/>
      <path id="Path_100" data-name="Path 100" d="M247,153a6.67,6.67,0,0,1,1.239.089.332.332,0,0,1,.141.258,3.577,3.577,0,0,1-1.258.214A1.161,1.161,0,0,1,247,153Z" transform="translate(-161.303 -99.666)" fill="#fff"/>
      <path id="Path_101" data-name="Path 101" d="M245.84,152.777a1.8,1.8,0,0,1,.067.61.831.831,0,0,1-.573.138A1.4,1.4,0,0,1,245.84,152.777Z" transform="translate(-160.21 -99.521)" fill="#fff"/>
      <path id="Path_102" data-name="Path 102" d="M251.089,153.468c-.086,0-.089-.169-.09-.254.1-.059.184-.008.3.13C251.283,153.426,251.229,153.446,251.089,153.468Z" transform="translate(-163.926 -99.791)" fill="#fff"/>
      <path id="Path_103" data-name="Path 103" d="M280.611,323.4a1.336,1.336,0,0,1-.2-.577l.409.006A1.333,1.333,0,0,1,280.611,323.4Z" transform="translate(-183.213 -211.018)" fill="#fff"/>
      <path id="Path_104" data-name="Path 104" d="M294.817,240.837a.6.6,0,0,1-.068-.385s.1,0,.153,0A.667.667,0,0,1,294.817,240.837Z" transform="translate(-192.61 -157.009)" fill="#fff"/>
      <path id="Path_105" data-name="Path 105" d="M293.729,191.107a4.51,4.51,0,0,1,1.254-.107,8.973,8.973,0,0,1-.19,1.936,2.007,2.007,0,0,1-.92.131,3.958,3.958,0,0,1-.789-1.226C293.3,191.554,293.507,191.384,293.729,191.107Z" transform="translate(-191.52 -124.583)" fill="#fff"/>
    </g>
  </g>
</svg>
